<svg width="42" height="32" viewBox="0 0 42 32" fill="none" xmlns="http://www.w3.org/2000/svg">
<path fill-rule="evenodd" clip-rule="evenodd" d="M25.092 0.792001V0.504C25.092 0.168 24.912 0 24.552 0L19.224 0.0359995C18.84 0.0359995 18.648 0.18 18.648 0.468L18.612 0.611999V0.935999C18.636 1.056 18.672 1.164 18.72 1.26C18.768 1.38 18.936 1.632 19.224 2.016C19.536 2.4 19.74 2.736 19.836 3.024C19.932 3.312 19.92 3.804 19.8 4.5L18.9956 6.94404L20.4759 6.94412H21.197L21.96 4.68C22.272 3.96 22.872 3.204 23.76 2.412C24.648 1.62 25.092 1.08 25.092 0.792001ZM19.4402 12.1571L16.452 21.024C16.236 21.96 16.248 22.62 16.488 23.004C16.68 23.364 16.596 23.652 16.236 23.868C15.324 24.276 14.34 24.48 13.284 24.48C12.972 24.48 12.732 24.468 12.564 24.444H12.6C11.952 24.42 11.352 24.24 10.8 23.904C10.248 23.568 9.768 23.112 9.36 22.536C8.976 21.936 8.676 21.456 8.46 21.096C8.268 20.712 8.052 20.232 7.812 19.656C7.5 18.936 6.96 17.34 6.192 14.868C5.448 12.396 4.764 10.104 4.14 7.992C3.516 5.856 3.204 4.752 3.204 4.68C2.964 4.08 2.568 3.516 2.016 2.988C1.488 2.46 1.02 2.028 0.612 1.692C0.204 1.356 0 1.056 0 0.792001V0.504C0 0.168 0.168 0 0.504 0L10.512 0.0359995C10.896 0.0359995 11.088 0.18 11.088 0.468C11.16 0.804 11.136 1.068 11.016 1.26C10.968 1.38 10.788 1.62 10.476 1.98C10.188 2.34 9.972 2.724 9.828 3.132C9.708 3.54 9.72 3.984 9.864 4.464L9.936 4.644C11.544 12.468 12.744 17.22 13.536 18.9C13.728 19.236 13.992 19.404 14.328 19.404C14.712 19.404 14.964 19.212 15.084 18.828L18.0001 9.96844C18.8308 10.8053 19.311 11.5938 19.4402 12.1571Z" fill="white"/>
<path d="M37.4761 24.7087C37.4981 26.7176 36.739 28.3129 35.1989 29.4946C33.6588 30.6762 31.6236 31.3262 29.0935 31.4443H29.1265H18.0046C17.8946 31.4443 17.7846 31.3971 17.6746 31.3025C17.5866 31.208 17.5426 31.1016 17.5426 30.9835C17.4546 30.6526 17.4546 30.3926 17.5426 30.2036C17.5646 30.1327 17.9276 29.7073 18.6317 28.9273C19.3357 28.1238 19.6877 27.4621 19.6877 26.9421V11.9466C19.6877 11.403 19.3357 10.7412 18.6317 9.96132C17.9496 9.18141 17.5866 8.73237 17.5426 8.6142C17.4986 8.5433 17.4766 8.44877 17.4766 8.3306C17.4766 8.1888 17.4876 8.07063 17.5096 7.97609L17.5426 7.83429C17.5426 7.57432 17.6966 7.44434 18.0046 7.44434H28.1694C30.3476 7.44434 32.1297 7.99973 33.5158 9.11051C34.9019 10.1977 35.606 11.5566 35.628 13.1873C35.628 14.4163 35.2319 15.5271 34.4399 16.5197C33.6698 17.4886 32.5917 18.1977 31.2056 18.6467C33.1198 18.9539 34.6379 19.6629 35.76 20.7737C36.8821 21.8845 37.4541 23.1962 37.4761 24.7087ZM30.4136 12.3365C29.7535 9.83134 28.6864 8.57875 27.2123 8.57875C26.0242 8.57875 25.2982 9.35866 25.0341 10.9185V12.8328C25.0341 12.8564 25.0451 12.8919 25.0671 12.9392V12.9746C25.5292 16.2361 26.6293 17.8668 28.3674 17.8668C28.5874 17.8668 28.8514 17.8195 29.1595 17.725C29.9075 17.465 30.3916 16.7796 30.6116 15.6689C30.8316 14.5344 30.7656 13.4237 30.4136 12.3365ZM28.4994 29.8845C29.6215 29.8845 30.5566 29.4 31.3046 28.431C32.0527 27.4621 32.3057 26.2449 32.0637 24.7796C31.8877 23.787 31.5466 22.9953 31.0406 22.4045C30.5566 21.8136 29.7755 21.3055 28.6974 20.8801C28.6314 20.8564 28.4114 20.7737 28.0374 20.6319C27.6853 20.4901 27.4213 20.3838 27.2453 20.3129C27.0693 20.2183 26.8273 20.0884 26.5193 19.9229C26.2332 19.7575 25.9692 19.5684 25.7272 19.3557C25.4852 19.143 25.2652 18.9067 25.0671 18.6467V21.0573C25.1111 22.6644 25.2212 24.047 25.3972 25.205C25.5732 26.3631 25.7712 27.2375 25.9912 27.8284C26.2112 28.3956 26.4973 28.8446 26.8493 29.1755C27.2013 29.5064 27.4763 29.7073 27.6743 29.7782C27.8944 29.8254 28.1694 29.8609 28.4994 29.8845Z" fill="white"/>
<circle cx="40" cy="30" r="2" fill="white"/>
</svg>
